<?xml version="1.0" encoding="utf-8"?>
<!-- Generator: Adobe Illustrator 25.4.1, SVG Export Plug-In . SVG Version: 6.00 Build 0)  -->
<svg version="1.1" id="Layer_1" xmlns="http://www.w3.org/2000/svg" xmlns:xlink="http://www.w3.org/1999/xlink" x="0px" y="0px"
	 viewBox="0 0 512 512" style="enable-background:new 0 0 512 512;" xml:space="preserve">
<style type="text/css">
	.st0{fill:#FFFFFF;}
</style>
<path class="st0" d="M0,224c0,53,43,96,96,96h47.2L290,202.5c17.6-14.1,42.6-14,60.2,0.2s22.8,38.6,12.8,58.8L333.7,320H352h64
	c53,0,96-43,96-96s-43-96-96-96c-0.5,0-1.1,0-1.6,0c1.1-5.2,1.6-10.5,1.6-16c0-44.2-35.8-80-80-80c-24.3,0-46.1,10.9-60.8,28
	C256.5,24.3,219.1,0,176,0C114.1,0,64,50.1,64,112c0,7.1,0.7,14.1,1.9,20.8C27.6,145.4,0,181.5,0,224z M330.1,227.6
	c-5.8-4.7-14.2-4.7-20.1-0.1l-160,128c-5.3,4.2-7.4,11.4-5.1,17.8S153.2,384,160,384h70.1l-52.4,104.8c-3.4,6.7-1.6,14.9,4.3,19.6
	c5.9,4.7,14.2,4.7,20.1,0.1l160-128c5.3-4.2,7.4-11.4,5.1-17.8s-8.3-10.7-15.1-10.7h-70.2l52.4-104.8
	C337.7,240.5,335.9,232.3,330.1,227.6L330.1,227.6z"/>
</svg>
