<?xml version="1.0" encoding="utf-8"?>
<!-- Generator: Adobe Illustrator 25.4.1, SVG Export Plug-In . SVG Version: 6.00 Build 0)  -->
<svg version="1.1" id="Layer_1" xmlns="http://www.w3.org/2000/svg" xmlns:xlink="http://www.w3.org/1999/xlink" x="0px" y="0px"
	 viewBox="0 0 448 512" style="enable-background:new 0 0 448 512;" xml:space="preserve">
<style type="text/css">
	.st0{fill:#FFFFFF;}
</style>
<path class="st0" d="M96,0C43,0,0,43,0,96v256c0,48,35.2,87.7,81.1,94.9l-46,46c-7,7-2,19.1,7.9,19.1h39.7c8.5,0,16.6-3.4,22.6-9.4
	L160,448h128l54.6,54.6c6,6,14.1,9.4,22.6,9.4H405c10,0,15-12.1,7.9-19.1l-46-46c46-7.1,81.1-46.9,81.1-94.9V96c0-53-43-96-96-96H96
	z M64,96c0-17.7,14.3-32,32-32h256c17.7,0,32,14.3,32,32v96c0,17.7-14.3,32-32,32H96c-17.7,0-32-14.3-32-32V96z M224,384
	c-26.5,0-48-21.5-48-48s21.5-48,48-48s48,21.5,48,48S250.5,384,224,384z"/>
</svg>
