<?xml version="1.0" encoding="utf-8"?>
<!-- Generator: Adobe Illustrator 26.5.0, SVG Export Plug-In . SVG Version: 6.00 Build 0)  -->
<svg version="1.1" id="Ebene_1" xmlns="http://www.w3.org/2000/svg" xmlns:xlink="http://www.w3.org/1999/xlink" x="0px" y="0px"
	 viewBox="0 0 512 512" style="enable-background:new 0 0 512 512;" xml:space="preserve">
<style type="text/css">
	.st0{fill:#FFFFFF;}
</style>
<path class="st0" d="M512,256c0,141.4-114.6,256-256,256S0,397.4,0,256S114.6,0,256,0S512,114.6,512,256z M256,352
	c-53,0-96-43-96-96s43-96,96-96s96,43,96,96S309,352,256,352z M256,384c70.7,0,128-57.3,128-128s-57.3-128-128-128
	s-128,57.3-128,128S185.3,384,256,384z M256,288c17.7,0,32-14.3,32-32s-14.3-32-32-32s-32,14.3-32,32S238.3,288,256,288z"/>
</svg>
