<?xml version="1.0" encoding="utf-8"?>
<!-- Generator: Adobe Illustrator 25.4.1, SVG Export Plug-In . SVG Version: 6.00 Build 0)  -->
<svg version="1.1" id="Layer_1" xmlns="http://www.w3.org/2000/svg" xmlns:xlink="http://www.w3.org/1999/xlink" x="0px" y="0px"
	 viewBox="0 0 512 512" style="enable-background:new 0 0 512 512;" xml:space="preserve">
<style type="text/css">
	.st0{fill:#FFFFFF;}
</style>
<path class="st0" d="M288,32c0,17.7,14.3,32,32,32h32c17.7,0,32,14.3,32,32s-14.3,32-32,32H32c-17.7,0-32,14.3-32,32s14.3,32,32,32
	h320c53,0,96-43,96-96S405,0,352,0h-32C302.3,0,288,14.3,288,32z M352,384c0,17.7,14.3,32,32,32h32c53,0,96-43,96-96s-43-96-96-96
	H32c-17.7,0-32,14.3-32,32s14.3,32,32,32h384c17.7,0,32,14.3,32,32s-14.3,32-32,32h-32C366.3,352,352,366.3,352,384z M128,512h32
	c53,0,96-43,96-96s-43-96-96-96H32c-17.7,0-32,14.3-32,32s14.3,32,32,32h128c17.7,0,32,14.3,32,32s-14.3,32-32,32h-32
	c-17.7,0-32,14.3-32,32S110.3,512,128,512z"/>
</svg>
