<?xml version="1.0" encoding="utf-8"?>
<!-- Generator: Adobe Illustrator 25.4.1, SVG Export Plug-In . SVG Version: 6.00 Build 0)  -->
<svg version="1.1" id="Layer_1" xmlns="http://www.w3.org/2000/svg" xmlns:xlink="http://www.w3.org/1999/xlink" x="0px" y="0px"
	 viewBox="0 0 640 512" style="enable-background:new 0 0 640 512;" xml:space="preserve">
<style type="text/css">
	.st0{fill:#FFFFFF;}
</style>
<path class="st0" d="M416,0c-63.7,0-160,32-160,32v128c48,0,76,16,104,32s56,32,104,32c56.4,0,176-16,176-96S512,0,416,0z M128,96
	c0,35.3,28.7,64,64,64h32V32h-32C156.7,32,128,60.7,128,96z M288,512c96,0,224-48,224-128s-119.6-96-176-96c-48,0-76,16-104,32
	s-56,32-104,32v128C128,480,224.3,512,288,512z M0,416c0,35.3,28.7,64,64,64h32V352H64C28.7,352,0,380.7,0,416z"/>
</svg>
