<svg id="图层_1" data-name="图层 1" xmlns="http://www.w3.org/2000/svg" viewBox="0 0 512 511.9"><defs><style>.cls-1{fill:#fff;}</style></defs><path class="cls-1" d="M96,320A96,96,0,0,1,65.9,132.8,118.31,118.31,0,0,1,64,112,112,112,0,0,1,275.2,60,80,80,0,0,1,416,112a84.28,84.28,0,0,1-1.6,16H416a96,96,0,0,1,0,192Zm-6.8,52a7.55,7.55,0,0,1,6.8-4,7.66,7.66,0,0,1,6.8,4l35.1,64.6a50.47,50.47,0,0,1,6.2,24.3v3a48,48,0,0,1-96,0v-3a50.19,50.19,0,0,1,6.2-24.3Zm160,0a7.55,7.55,0,0,1,6.8-4,7.66,7.66,0,0,1,6.8,4l35.1,64.6a50.47,50.47,0,0,1,6.2,24.3v3a48,48,0,1,1-96,0v-3a50.19,50.19,0,0,1,6.2-24.3Zm124.9,64.6L409.2,372a7.55,7.55,0,0,1,6.8-4,7.66,7.66,0,0,1,6.8,4l35.1,64.6a50.47,50.47,0,0,1,6.2,24.3v3a48,48,0,0,1-96,0v-3a50.19,50.19,0,0,1,6.2-24.3Z"/></svg>