<svg id="图层_1" data-name="图层 1" xmlns="http://www.w3.org/2000/svg" viewBox="0 0 575.88 384.07"><defs><style>.cls-1{fill:#fff;}</style></defs><path class="cls-1" d="M269.5,69.9a31.84,31.84,0,0,1,37,0C329,85.4,356.5,96,384,96c26.9,0,55.4-10.8,77.4-26.1h0a31.86,31.86,0,0,1,39.2,1.7,126.3,126.3,0,0,0,50.6,25.2,32,32,0,1,1-14.5,62.3c-24.5-5.7-44.9-16.5-58.2-25C449.5,149.7,417,160,384,160c-31.9,0-60.6-9.9-80.4-18.9-5.8-2.7-11.1-5.3-15.6-7.7-4.5,2.4-9.7,5.1-15.6,7.7-19.8,9-48.5,18.9-80.4,18.9-33,0-65.5-10.3-94.5-25.8-13.4,8.4-33.7,19.3-58.2,25A32,32,0,1,1,24.8,96.9,127.4,127.4,0,0,0,75.3,71.6a32,32,0,0,1,39.2-1.7h0C136.7,85.2,165.1,96,192,96,219.5,96,247,85.4,269.5,69.9Zm37,288C329,373.4,356.5,384,384,384c26.9,0,55.4-10.8,77.4-26.1h0a31.86,31.86,0,0,1,39.2,1.7,126.3,126.3,0,0,0,50.6,25.2,32,32,0,0,1-14.5,62.3c-24.5-5.7-44.9-16.5-58.2-25C449.5,437.7,417,448,384,448c-31.9,0-60.6-9.9-80.4-18.9-5.8-2.7-11.1-5.3-15.6-7.7-4.5,2.4-9.7,5.1-15.6,7.7-19.8,9-48.5,18.9-80.4,18.9-33,0-65.5-10.3-94.5-25.8-13.4,8.4-33.7,19.3-58.2,25a32,32,0,0,1-14.5-62.3,126.3,126.3,0,0,0,50.6-25.2,32.14,32.14,0,0,1,39.2-1.7h0c22.1,15.2,50.5,26,77.4,26,27.5,0,55-10.6,77.5-26.1A31.84,31.84,0,0,1,306.5,357.9Zm0-144C329,229.4,356.5,240,384,240c26.9,0,55.4-10.8,77.4-26.1h0a31.86,31.86,0,0,1,39.2,1.7,126.3,126.3,0,0,0,50.6,25.2,32,32,0,0,1-14.5,62.3c-24.5-5.7-44.9-16.5-58.2-25C449.5,293.7,417,304,384,304c-31.9,0-60.6-9.9-80.4-18.9-5.8-2.7-11.1-5.3-15.6-7.7-4.5,2.4-9.7,5.1-15.6,7.7-19.8,9-48.5,18.9-80.4,18.9-33,0-65.5-10.3-94.5-25.8-13.4,8.4-33.7,19.3-58.2,25a32,32,0,0,1-14.5-62.3,126.3,126.3,0,0,0,50.6-25.2,32,32,0,0,1,39.2-1.7h0c22.1,15.2,50.5,26,77.4,26,27.5,0,55-10.6,77.5-26.1A31.84,31.84,0,0,1,306.5,213.9Z" transform="translate(-0.06 -63.97)"/></svg>