<svg id="图层_1" data-name="图层 1" xmlns="http://www.w3.org/2000/svg" viewBox="0 0 512 448"><defs><style>.cls-1{fill:#fff;}</style></defs><path class="cls-1" d="M135.2,117.4,109.1,192H402.9l-26.1-74.6A32,32,0,0,0,346.6,96H165.4A32,32,0,0,0,135.2,117.4ZM39.6,196.8,74.8,96.3A96,96,0,0,1,165.4,32H346.6a96,96,0,0,1,90.6,64.3l35.2,100.5A64.12,64.12,0,0,1,512,256V448a32,32,0,0,1-32,32H448a32,32,0,0,1-32-32V400H96v48a32,32,0,0,1-32,32H32A32,32,0,0,1,0,448V256A64.12,64.12,0,0,1,39.6,196.8ZM128,288a32,32,0,1,0-32,32A32,32,0,0,0,128,288Zm288,32a32,32,0,1,0-32-32A32,32,0,0,0,416,320Z" transform="translate(0 -32)"/></svg>